<svg width="50" height="16" viewBox="0 0 50 16" fill="none" xmlns="http://www.w3.org/2000/svg">
<path d="M1.02539 8.66406C1.02539 7.48438 1.04297 6.57812 1.07812 5.94531H1.07227L0.234375 5.82227C0.183594 5.67773 0.144531 5.51758 0.117188 5.3418C0.0898438 5.16602 0.0761719 4.99609 0.0761719 4.83203C0.0761719 4.70703 0.0859375 4.57031 0.105469 4.42188C0.585938 4.25 1.24805 4.12305 2.0918 4.04102C2.93555 3.95898 3.74805 3.91797 4.5293 3.91797C5.12695 3.91797 5.64062 3.96484 6.07031 4.05859C6.5 4.15234 6.85938 4.36523 7.14844 4.69727C7.44141 5.02539 7.58789 5.51758 7.58789 6.17383C7.58789 6.50195 7.51758 6.88477 7.37695 7.32227C7.24023 7.75586 7.06445 8.17969 6.84961 8.59375C6.63867 9.00391 6.42578 9.33594 6.21094 9.58984C5.89453 9.96875 5.54297 10.1914 5.15625 10.2578C4.51562 10.3594 3.83789 10.4102 3.12305 10.4102C3.10742 10.8125 3.10156 11.1016 3.10547 11.2773L3.97852 11.2188C4.1582 11.5117 4.25781 11.8594 4.27734 12.2617C4.27734 12.2812 4.18945 12.3652 4.01367 12.5137C3.83789 12.6621 3.60547 12.7988 3.31641 12.9238C3.03125 13.0488 2.70312 13.1113 2.33203 13.1113C1.96484 13.1113 1.67188 13.0117 1.45312 12.8125C1.23828 12.6094 1.13086 12.2598 1.13086 11.7637C1.06445 10.9512 1.03125 9.91992 1.03125 8.66992L1.02539 8.66406ZM4.73438 8.76367C4.83594 8.33398 4.91992 7.87891 4.98633 7.39844C5.05664 6.91406 5.0957 6.49219 5.10352 6.13281C5.08398 6.09766 4.98438 6.06641 4.80469 6.03906C4.625 6.01172 4.39258 5.99805 4.10742 5.99805C3.9082 5.99805 3.66016 6.00586 3.36328 6.02148C3.32812 7.20117 3.28125 8.14844 3.22266 8.86328L4.73438 8.76367ZM8.00977 9.53711C8.00977 8.83008 8.12305 8.2168 8.34961 7.69727C8.57617 7.17773 8.92383 6.77539 9.39258 6.49023C9.86133 6.20117 10.4492 6.05664 11.1562 6.05664C11.9375 6.05664 12.5508 6.20312 12.9961 6.49609C13.4414 6.78516 13.752 7.1875 13.9277 7.70312C14.1074 8.21875 14.1973 8.84961 14.1973 9.5957C14.1973 10.2715 14.0781 10.875 13.8398 11.4062C13.6055 11.9336 13.25 12.3516 12.7734 12.6602C12.3008 12.9648 11.7207 13.1172 11.0332 13.1172C9.9707 13.1172 9.20117 12.791 8.72461 12.1387C8.24805 11.4824 8.00977 10.6152 8.00977 9.53711ZM11.2734 11.4004C11.4727 11.4004 11.5938 11.3848 11.6367 11.3535C11.7266 11.1973 11.7949 10.9766 11.8418 10.6914C11.8887 10.4062 11.9121 10.0977 11.9121 9.76562C11.9121 9.46094 11.8926 9.17578 11.8535 8.91016C11.8145 8.64062 11.7598 8.42969 11.6895 8.27734C11.6465 8.22656 11.5605 8.18945 11.4316 8.16602C11.3027 8.13867 11.1621 8.125 11.0098 8.125C10.8105 8.125 10.6738 8.14648 10.5996 8.18945C10.4043 8.52539 10.3066 8.99219 10.3066 9.58984C10.3066 9.87109 10.3281 10.1582 10.3711 10.4512C10.4141 10.7441 10.4688 11.0098 10.5352 11.248C10.582 11.2988 10.6777 11.3379 10.8223 11.3652C10.9668 11.3887 11.1172 11.4004 11.2734 11.4004ZM15.3223 9.21484C15.3223 7.38672 15.3574 6.13281 15.4277 5.45312L14.7656 5.33594C14.6719 4.97656 14.625 4.58984 14.625 4.17578C14.6836 4.10156 14.793 4.00977 14.9531 3.90039C15.1133 3.79102 15.2988 3.69531 15.5098 3.61328C15.7246 3.53125 15.9375 3.49023 16.1484 3.49023C16.6719 3.49023 17.0781 3.60352 17.3672 3.83008C17.6602 4.05664 17.8066 4.44336 17.8066 4.99023C17.8066 5.26367 17.7871 5.68359 17.748 6.25C17.709 6.8125 17.6367 7.49609 17.5312 8.30078C17.4258 9.10547 17.2852 9.94531 17.1094 10.8203L17.209 10.8789C17.5176 10.4531 17.8145 9.98438 18.0996 9.47266C18.3848 8.95703 18.6113 8.47852 18.7793 8.03711L18.2754 7.91406C18.2285 7.64844 18.2051 7.33398 18.2051 6.9707V6.75977C18.3535 6.57227 18.5566 6.4082 18.8145 6.26758C19.0762 6.12695 19.4004 6.05664 19.7871 6.05664C20.0645 6.05664 20.3047 6.10938 20.5078 6.21484C20.7109 6.31641 20.8672 6.45898 20.9766 6.64258C21.0859 6.82617 21.1406 7.03711 21.1406 7.27539C21.1406 7.45508 21.1133 7.625 21.0586 7.78516C21.0039 7.94141 20.9219 8.10742 20.8125 8.2832C20.5312 8.72852 20.041 9.36133 19.3418 10.1816C19.5762 10.5098 19.8047 10.7949 20.0273 11.0371C20.1133 10.9941 20.1934 10.9375 20.2676 10.8672C20.3457 10.7969 20.4453 10.6953 20.5664 10.5625L20.6953 10.4277L21.416 10.9727C21.3887 11.668 21.2383 12.1992 20.9648 12.5664C20.6953 12.9297 20.3379 13.1113 19.8926 13.1113C19.4043 13.1113 19.0371 12.9629 18.791 12.666C18.5449 12.3691 18.3652 11.9492 18.252 11.4062C17.8223 11.8711 17.4434 12.2617 17.1152 12.5781C16.791 12.8906 16.5781 13.0703 16.4766 13.1172C16.2617 13.1172 16.0566 13.0918 15.8613 13.041C15.666 12.9902 15.5215 12.9102 15.4277 12.8008C15.3848 12.2461 15.3555 11.6973 15.3398 11.1543C15.3281 10.6074 15.3223 9.96094 15.3223 9.21484ZM22.0254 9.5957C22.0254 8.91992 22.1387 8.31641 22.3652 7.78516C22.5918 7.25391 22.9414 6.83398 23.4141 6.52539C23.8906 6.21289 24.4844 6.05664 25.1953 6.05664C25.5664 6.05664 25.9375 6.10156 26.3086 6.19141C26.6797 6.27734 26.9941 6.42188 27.252 6.625C27.4902 6.81641 27.6621 7.07031 27.7676 7.38672C27.877 7.69922 27.9316 8.04688 27.9316 8.42969C27.9316 8.68359 27.9102 8.94336 27.8672 9.20898C27.8203 9.28711 27.7285 9.39062 27.5918 9.51953C27.4551 9.64453 27.2949 9.76758 27.1113 9.88867C26.9277 10.0098 26.75 10.1035 26.5781 10.1699C26.4141 10.1816 26.2441 10.1875 26.0684 10.1875C25.7598 10.1875 25.4473 10.1738 25.1309 10.1465C24.8145 10.1191 24.5371 10.0879 24.2988 10.0527C24.3301 10.3848 24.4316 10.6738 24.6035 10.9199C24.7754 11.166 25.0488 11.2891 25.4238 11.2891C25.459 11.2891 25.5156 11.2852 25.5938 11.2773C25.832 11.2539 26.1094 11.1914 26.4258 11.0898C26.7461 10.9844 27.0645 10.8633 27.3809 10.7266C27.5293 10.875 27.6387 11.0234 27.709 11.1719C27.7793 11.3203 27.8281 11.5332 27.8555 11.8105C27.7344 11.9512 27.5371 12.123 27.2637 12.3262C26.9941 12.5293 26.6641 12.7129 26.2734 12.877C25.8828 13.0371 25.4746 13.1172 25.0488 13.1172C24.4082 13.1172 23.8594 12.9629 23.4023 12.6543C22.9492 12.3418 22.6055 11.9199 22.3711 11.3887C22.1406 10.8535 22.0254 10.2559 22.0254 9.5957ZM25.7988 8.24805C25.7441 8.18945 25.6523 8.14453 25.5234 8.11328C25.3945 8.07812 25.2598 8.06055 25.1191 8.06055C25.0059 8.06055 24.8906 8.07031 24.7734 8.08984C24.6602 8.10938 24.5918 8.13086 24.5684 8.1543C24.4355 8.41602 24.3516 8.71289 24.3164 9.04492L25.8809 8.89258L25.7988 8.24805Z" fill="white"/>
<path d="M38.3125 8.89453C38.3125 8.30078 38.3359 7.66797 38.3828 6.99609C38.1172 6.94141 37.8809 6.86914 37.6738 6.7793C37.4668 6.68555 37.3262 6.5918 37.252 6.49805C37.252 5.99023 37.3262 5.54883 37.4746 5.17383H39.6836C39.9922 5.17383 40.2227 5.24414 40.375 5.38477C40.5312 5.52539 40.6309 5.70117 40.6738 5.91211C40.7168 6.12305 40.7383 6.38477 40.7383 6.69727C40.7383 7.20898 40.7188 7.73828 40.6797 8.28516C40.6445 8.83203 40.5898 9.51953 40.5156 10.3477C40.4727 10.7695 40.4297 11.2754 40.3867 11.8652C40.0703 12.0371 39.7188 12.123 39.332 12.123C38.9961 12.123 38.6797 12.0625 38.3828 11.9414C38.3359 11.1797 38.3125 10.1641 38.3125 8.89453ZM45.3672 5.05664C46.4609 5.05664 47.2617 5.35547 47.7695 5.95312C48.2773 6.54688 48.5312 7.38672 48.5312 8.47266C48.5312 9.1875 48.4082 9.81836 48.1621 10.3652C47.9199 10.9121 47.5508 11.3418 47.0547 11.6543C46.5625 11.9629 45.959 12.1172 45.2441 12.1172C44.5371 12.1172 43.9492 11.9766 43.4805 11.6953C43.0117 11.4141 42.6641 11.0195 42.4375 10.5117C42.2109 10 42.0977 9.39844 42.0977 8.70703C42.0977 7.98047 42.2129 7.3457 42.4434 6.80273C42.6738 6.25586 43.0332 5.82812 43.5215 5.51953C44.0098 5.21094 44.625 5.05664 45.3672 5.05664ZM45.5254 10.459C45.7793 10.459 45.9277 10.4434 45.9707 10.4121C46.0605 10.2559 46.1289 10.0293 46.1758 9.73242C46.2266 9.43164 46.252 9.10938 46.252 8.76562C46.252 8.44922 46.2305 8.15039 46.1875 7.86914C46.1484 7.58789 46.0938 7.37109 46.0234 7.21875C45.9805 7.17188 45.873 7.13477 45.7012 7.10742C45.5332 7.08008 45.373 7.06641 45.2207 7.06641C45.1113 7.06641 45.002 7.07227 44.8926 7.08398C44.7871 7.0957 44.7188 7.11133 44.6875 7.13086C44.4922 7.45117 44.3945 7.93359 44.3945 8.57812C44.3945 8.87891 44.416 9.18359 44.459 9.49219C44.502 9.80078 44.5566 10.0723 44.623 10.3066C44.6699 10.3574 44.7812 10.3965 44.957 10.4238C45.1367 10.4473 45.3262 10.459 45.5254 10.459Z" fill="white"/>
<path d="M33.6667 1.33333L27 9.33333H33L32.3333 14.6667L39 6.66666H33L33.6667 1.33333Z" stroke="#E2B716" stroke-width="2" stroke-linecap="round" stroke-linejoin="round"/>
</svg>
